<svg id="visual" viewBox="0 0 960 540" width="960" height="540" xmlns="http://www.w3.org/2000/svg" xmlns:xlink="http://www.w3.org/1999/xlink" version="1.1"><rect x="0" y="0" width="960" height="540" fill="#333"></rect><g transform="translate(1002.3370052924726 16.868710969619258)"><path d="M161.1 -304.3C195.2 -259.3 199.9 -188.7 232.8 -133.7C265.7 -78.8 326.9 -39.4 347.6 12C368.4 63.3 348.7 126.7 306.6 165.8C264.6 204.9 200 219.8 145.2 250.5C90.3 281.1 45.2 327.6 2.2 323.8C-40.8 320.1 -81.7 266.1 -146.9 241.5C-212.1 216.8 -301.8 221.4 -360.1 186C-418.5 150.7 -445.5 75.3 -439.9 3.3C-434.2 -68.8 -395.9 -137.7 -339.1 -175.6C-282.3 -213.6 -206.9 -220.7 -147.3 -250.9C-87.7 -281.2 -43.8 -334.6 9.8 -351.6C63.5 -368.7 127 -349.3 161.1 -304.3" fill="#407BFF"></path></g></svg>